# xmcd
#
# Track frame offsets:
#	150
#	29239
#	54411
#	80976
#	109404
#	134527
#	157662
#	181543
#	209676
#	229797
#	249440
#	282192
#	308030
#
# Disc length: 4306 seconds
#
# Revision: 1
# Processed by: cddbd v1.5.1PL0 Copyright (c) Steve Scherf et al.
# Submitted via: audiograbber 1.80
#
DISCID=b610d00d
DTITLE=George Michael - MTV Unplugget
DYEAR=1900
DGENRE=
TTITLE0=Fredom
TTITLE1=Fastlove
TTITLE2=I can't make you love me
TTITLE3=Father figure
TTITLE4=You have been loved
TTITLE5=Everything
TTITLE6=Praying for time
TTITLE7=Star people
TTITLE8=can't stop
TTITLE9=Sweet thing
TTITLE10=Cowboys and angels
TTITLE11=A moment with you
TTITLE12=Desatinado
EXTD=
EXTT0=
EXTT1=
EXTT2=
EXTT3=
EXTT4=
EXTT5=
EXTT6=
EXTT7=
EXTT8=
EXTT9=
EXTT10=
EXTT11=
EXTT12=
PLAYORDER=
